{"title":"Disney's DTV Monster Hits (Betamax Rip from TV Broadcast)","uid":7763290,"size":518742303,"categoryP":"video","categoryS":"tv_shows","magnet":"?xt=urn:btih:7bdaa8e7548148052a1c128261b4594e2f26f72e&amp;dn=Disney%27s+DTV+Monster+Hits+%28Betamax+Rip+from+TV+Broadcast%29&amp;tr=udp%3A%2F%2Ftracker.openbittorrent.com%3A80&amp;tr=udp%3A%2F%2Fopen.demonii.com%3A1337&amp;tr=udp%3A%2F%2Ftracker.coppersurfer.tk%3A6969&amp;tr=udp%3A%2F%2Fexodus.desync.com%3A6969","seeders":1,"leechers":0,"uploader":null,"files":2,"time":1351294273,"description":"A Halloween special featuring appropriately-themed rock and roll songs set to scenes from the Disney library of classic animation. \n\n\nFormat                                   : MPEG-4\nFormat profile                           : Base Media\nCodec ID                                 : isom\nFile size                                : 478 MiB\nDuration                                 : 47mn 36s\nOverall bit rate                         : 1 402 Kbps\nWriting application                      : Lavf54.6.100\n\nVideo\nID                                       : 1\nFormat                                   : AVC\nFormat/Info                              : Advanced Video Codec\nFormat profile                           : &lt;a class=&quot;__cf_email__&quot; href=&quot;/cdn-cgi/l/email-protection&quot; data-cfemail=&quot;0e436f67604e423b203f&quot;&gt;[email&amp;#160;protected]&lt;/a&gt;&lt;script cf-hash='f9e31' type=&quot;text/javascript&quot;&gt;\n/* &lt;![CDATA[ */!function(){try{var t=&quot;currentScript&quot;in document?document.currentScript:function(){for(var t=document.getElementsByTagName(&quot;script&quot;),e=t.length;e--;)if(t[e].getAttribute(&quot;cf-hash&quot;))return t[e]}();if(t&amp;&amp;t.previousSibling){var e,r,n,i,c=t.previousSibling,a=c.getAttribute(&quot;data-cfemail&quot;);if(a){for(e=&quot;&quot;,r=parseInt(a.substr(0,2),16),n=2;a.length-n;n+=2)i=parseInt(a.substr(n,2),16)^r,e+=String.fromCharCode(i);e=document.createTextNode(e),c.parentNode.replaceChild(e,c)}}}catch(u){}}();/* ]]&gt; */&lt;/script&gt;\nFormat settings, CABAC                   : Yes\nFormat settings, ReFrames                : 1 frame\nCodec ID                                 : avc1\nCodec ID/Info                            : Advanced Video Coding\nDuration                                 : 47mn 36s\nBit rate                                 : 1 201 Kbps\nWidth                                    : 640 pixels\nHeight                                   : 480 pixels\nDisplay aspect ratio                     : 4:3\nFrame rate mode                          : Variable\nFrame rate                               : 25.000 fps\nMinimum frame rate                       : 24.876 fps\nMaximum frame rate                       : 25.202 fps\nColor space                              : YUV\nChroma subsampling                       : 4:2:0\nBit depth                                : 8 bits\nScan type                                : Progressive\nBits/(Pixel*Frame)                       : 0.156\nStream size                              : 409 MiB (86%)\n\nAudio\nID                                       : 2\nFormat                                   : MPEG Audio\nFormat version                           : Version 1\nFormat profile                           : Layer 3\nCodec ID                                 : 6B\nDuration                                 : 47mn 36s\nBit rate mode                            : Constant\nBit rate                                 : 192 Kbps\nChannel(s)                               : 2 channels\nSampling rate                            : 44.1 KHz\nCompression mode                         : Lossy\nStream size                              : 65.4 MiB (14%)\n\nScreens:\n &lt;a href=&quot;\nhttp://img40.imageshack.us/img40/1862/vlcsnap2012102613h50m18.png&quot; rel=&quot;nofollow&quot; target=&quot;_NEW&quot;&gt;\nhttp://img40.imageshack.us/img40/1862/vlcsnap2012102613h50m18.png&lt;/a&gt; &lt;a href=&quot;\nhttp://img38.imageshack.us/img38/6551/vlcsnap2012102613h50m52.png&quot; rel=&quot;nofollow&quot; target=&quot;_NEW&quot;&gt;\nhttp://img38.imageshack.us/img38/6551/vlcsnap2012102613h50m52.png&lt;/a&gt; &lt;a href=&quot;\nhttp://img198.imageshack.us/img198/1699/vlcsnap2012102613h51m14.png&quot; rel=&quot;nofollow&quot; target=&quot;_NEW&quot;&gt;\nhttp://img198.imageshack.us/img198/1699/vlcsnap2012102613h51m14.png&lt;/a&gt; &lt;a href=&quot;\nhttp://img41.imageshack.us/img41/7690/vlcsnap2012102613h52m14.png&quot; rel=&quot;nofollow&quot; target=&quot;_NEW&quot;&gt;\nhttp://img41.imageshack.us/img41/7690/vlcsnap2012102613h52m14.png&lt;/a&gt; &lt;a href=&quot;\nhttp://img210.imageshack.us/img210/852/vlcsnap2012102613h53m21.png&quot; rel=&quot;nofollow&quot; target=&quot;_NEW&quot;&gt;\nhttp://img210.imageshack.us/img210/852/vlcsnap2012102613h53m21.png&lt;/a&gt;\n\nThis is my own rip from an old beta tape I had lying around. It is the best quality I have found on the net.\n\n\n\n","torrent":{"xt":"urn:btih:7bdaa8e7548148052a1c128261b4594e2f26f72e","amp;dn":"Disney%27s+DTV+Monster+Hits+%28Betamax+Rip+from+TV+Broadcast%29","amp;tr":["udp%3A%2F%2Ftracker.openbittorrent.com%3A80","udp%3A%2F%2Fopen.demonii.com%3A1337","udp%3A%2F%2Ftracker.coppersurfer.tk%3A6969","udp%3A%2F%2Fexodus.desync.com%3A6969"],"infoHash":"7bdaa8e7548148052a1c128261b4594e2f26f72e","infoHashBuffer":{"type":"Buffer","data":[123,218,168,231,84,129,72,5,42,28,18,130,97,180,89,78,47,38,247,46]},"announce":[],"urlList":[]}}